{"title":"Cross Bronx.2004.DVDRIP.Eng.AVI","uid":6527023,"size":737059832,"categoryP":"video","categoryS":"movies","magnet":"?xt=urn:btih:6abe01310885b96fec66f9ba6a9a9dc47c39b4ee&amp;dn=Cross+Bronx.2004.DVDRIP.Eng.AVI&amp;tr=udp%3A%2F%2Ftracker.openbittorrent.com%3A80&amp;tr=udp%3A%2F%2Fopen.demonii.com%3A1337&amp;tr=udp%3A%2F%2Ftracker.coppersurfer.tk%3A6969&amp;tr=udp%3A%2F%2Fexodus.desync.com%3A6969","seeders":1,"leechers":1,"uploader":"Maximis","files":-1,"time":1310199663,"description":"Description\n\nCompelling coming-of-age drama focuses on four high school friends as they attempt to figure out what to do with their lives. After a young college-bound Jewish man, a mobster's son, an African-American athlete, and an artist from a broken home move into a house in a rough Bronx neighborhood, they each deal with relationship struggles and the pressures of adult life. Jerry Ferrara, Dania Ramirez, Nashawn Kearse, James Badge Dale star. \n\nIMDB Link:  www.imdb.com/title/tt0414924\n\n\nGeneral\nComplete name                    : Cross Bronx\nFormat                           : AVI\nFormat/Info                      : Audio Video Interleave\nFile size                        : 703 MiB\nDuration                         : 1h 39mn\nOverall bit rate                 : 986 Kbps\nWriting application              : VirtualDubMod 1.5.4.1 (build 2178/release)\nWriting library                  : VirtualDubMod build 2178/release\nLanguage                         : English\n\nVideo\nID                               : 0\nFormat                           : MPEG-4 Visual\nFormat profile                   : Advanced Simple@L5\nFormat settings, BVOP            : 1\nFormat settings, QPel            : No\nFormat settings, GMC             : No warppoints\nFormat settings, Matrix          : Custom\nCodec ID                         : XVID\nCodec ID/Hint                    : XviD\nDuration                         : 1h 39mn\nBit rate                         : 866 Kbps\nWidth                            : 672 pixels\nHeight                           : 384 pixels\nDisplay aspect ratio             : 16:9\nFrame rate                       : 23.976 fps\nColor space                      : YUV\nChroma subsampling               : 4:2:0\nBit depth                        : 8 bits\nScan type                        : Progressive\nCompression mode                 : Lossy\nBits/(Pixel*Frame)               : 0.140\nStream size                      : 617 MiB (88%)\nWriting library                  : XviD 1.2.1 (UTC 2008-12-04)\n\nAudio\nID                               : 1\nFormat                           : MPEG Audio\nFormat version                   : Version 1\nFormat profile                   : Layer 3\nMode                             : Joint stereo\nMode extension                   : MS Stereo\nCodec ID                         : 55\nCodec ID/Hint                    : MP3\nDuration                         : 1h 39mn\nBit rate mode                    : Variable\nBit rate                         : 108 Kbps\nNominal bit rate                 : 128 Kbps\nChannel(s)                       : 2 channels\nSampling rate                    : 48.0 KHz\nCompression mode                 : Lossy\nStream size                      : 76.7 MiB (11%)\nAlignment                        : Aligned on interleaves\nInterleave, duration             : 24 ms (0.58 video frame)\nInterleave, preload duration     : 506 ms\nWriting library                  : LAME3.98r\nEncoding settings                : -m j -V 4 -q 2 -lowpass 17 --abr 128\n","torrent":{"xt":"urn:btih:6abe01310885b96fec66f9ba6a9a9dc47c39b4ee","amp;dn":"Cross+Bronx.2004.DVDRIP.Eng.AVI","amp;tr":["udp%3A%2F%2Ftracker.openbittorrent.com%3A80","udp%3A%2F%2Fopen.demonii.com%3A1337","udp%3A%2F%2Ftracker.coppersurfer.tk%3A6969","udp%3A%2F%2Fexodus.desync.com%3A6969"],"infoHash":"6abe01310885b96fec66f9ba6a9a9dc47c39b4ee","infoHashBuffer":{"type":"Buffer","data":[106,190,1,49,8,133,185,111,236,102,249,186,106,154,157,196,124,57,180,238]},"announce":[],"urlList":[]}}